<?xml version="1.0" encoding="UTF-8"?>
<svg width="12px" height="14px" viewBox="0 0 12 14" version="1.1" xmlns="http://www.w3.org/2000/svg" xmlns:xlink="http://www.w3.org/1999/xlink">
    <!-- Generator: Sketch 50.2 (55047) - http://www.bohemiancoding.com/sketch -->
    <title>dark/aside/scheme-hl</title>
    <desc>Created with Sketch.</desc>
    <defs></defs>
    <g id="Page-1" stroke="none" stroke-width="1" fill="none" fill-rule="evenodd">
        <g id="00a" transform="translate(-376.000000, -213.000000)">
            <g id="dark/aside/scheme-hl" transform="translate(374.000000, 212.000000)">
                <rect id="Rectangle-4" x="0" y="0" width="16" height="16"></rect>
                <path d="M9.15384615,2 L3,2 L3,14 L13,14 L13,6 L9.15384615,2 Z M9.15384615,2 L9.15384615,6 L13,6 M5.30769231,5.2 L6.84615385,5.2 L6.84615385,6 L5.30769231,6 L5.30769231,5.2 Z M4.92307692,8.4 L7.23076923,8.4 M8.76923077,8.4 L11.0769231,8.4 M4.92307692,10 L7.23076923,10 M8.76923077,10 L11.0769231,10 M4.92307692,11.6 L7.23076923,11.6 M8.76923077,11.6 L11.0769231,11.6" id="Path-121" stroke="#1C6FE6"></path>
            </g>
        </g>
    </g>
</svg>