<?xml version="1.0" encoding="UTF-8"?>
<svg width="14px" height="11px" viewBox="0 0 14 11" version="1.1" xmlns="http://www.w3.org/2000/svg" xmlns:xlink="http://www.w3.org/1999/xlink">
    <!-- Generator: Sketch 50.2 (55047) - http://www.bohemiancoding.com/sketch -->
    <title>dark/aside/setting</title>
    <desc>Created with Sketch.</desc>
    <defs>
        <rect id="path-1" x="0" y="0" width="10.5" height="10.5"></rect>
        <path d="M2.93490365,-6.10622664e-16 C2.20828553,0.641326398 1.75,1.57964404 1.75,2.625 C1.75,3.85123557 2.38060232,4.93018608 3.33520486,5.55524943 C1.93046505,6.01716175 0.750107236,6.9734887 1.66533454e-16,8.21836172 L0,-4.4408921e-16 L2.93490365,-4.4408921e-16 Z M7.56509635,-4.4408921e-16 L14,-4.4408921e-16 L14,10.5 L11.3129722,10.5 C10.9804078,8.1750053 9.34213986,6.27121287 7.16479514,5.55524943 C8.11939768,4.93018608 8.75,3.85123557 8.75,2.625 C8.75,1.57964404 8.29171447,0.641326398 7.56509635,-2.22044605e-16 Z" id="path-3"></path>
    </defs>
    <g id="Page-1" stroke="none" stroke-width="1" fill="none" fill-rule="evenodd">
        <g id="00a" transform="translate(-313.000000, -173.000000)">
            <g id="dark/aside/setting" transform="translate(312.000000, 170.000000)">
                <rect id="Rectangle-4" x="0" y="0" width="16" height="16"></rect>
                <g id="Group-2" transform="translate(1.000000, 3.000000)">
                    <g id="Group">
                        <mask id="mask-2" fill="white">
                            <use xlink:href="#path-1"></use>
                        </mask>
                        <g id="Rectangle"></g>
                        <path d="M5.25,16.1875 C7.90787036,16.1875 10.0625,14.0328704 10.0625,11.375 C10.0625,8.71712964 7.90787036,6.5625 5.25,6.5625 C2.59212964,6.5625 0.4375,8.71712964 0.4375,11.375 C0.4375,14.0328704 2.59212964,16.1875 5.25,16.1875 Z M5.25,4.8125 C6.45812289,4.8125 7.4375,3.83312289 7.4375,2.625 C7.4375,1.41687711 6.45812289,0.4375 5.25,0.4375 C4.04187711,0.4375 3.0625,1.41687711 3.0625,2.625 C3.0625,3.83312289 4.04187711,4.8125 5.25,4.8125 Z" id="Oval-2" stroke="#CED3D7" mask="url(#mask-2)"></path>
                    </g>
                    <g id="Group">
                        <mask id="mask-4" fill="white">
                            <use xlink:href="#path-3"></use>
                        </mask>
                        <g id="Combined-Shape"></g>
                        <path d="M8.75,16.1875 C11.4078704,16.1875 13.5625,14.0328704 13.5625,11.375 C13.5625,8.71712964 11.4078704,6.5625 8.75,6.5625 C6.09212964,6.5625 3.9375,8.71712964 3.9375,11.375 C3.9375,14.0328704 6.09212964,16.1875 8.75,16.1875 Z M8.75,4.8125 C9.95812289,4.8125 10.9375,3.83312289 10.9375,2.625 C10.9375,1.41687711 9.95812289,0.4375 8.75,0.4375 C7.54187711,0.4375 6.5625,1.41687711 6.5625,2.625 C6.5625,3.83312289 7.54187711,4.8125 8.75,4.8125 Z" id="Oval-2" stroke="#CED3D7" mask="url(#mask-4)"></path>
                    </g>
                </g>
            </g>
        </g>
    </g>
</svg>