<?xml version="1.0" encoding="UTF-8"?>
<svg width="18px" height="18px" viewBox="0 0 18 18" version="1.1" xmlns="http://www.w3.org/2000/svg" xmlns:xlink="http://www.w3.org/1999/xlink">
    <!-- Generator: Sketch 50.2 (55047) - http://www.bohemiancoding.com/sketch -->
    <title>dark/aside/user-info</title>
    <desc>Created with Sketch.</desc>
    <defs>
        <linearGradient x1="0.25781251%" y1="49.7500002%" x2="101.257813%" y2="49.7500002%" id="linearGradient-1">
            <stop stop-color="#3023AE" offset="0%"></stop>
            <stop stop-color="#5182E4" offset="100%"></stop>
        </linearGradient>
        <rect id="path-2" x="0" y="0" width="14.4" height="12"></rect>
    </defs>
    <g id="Page-1" stroke="none" stroke-width="1" fill="none" fill-rule="evenodd">
        <g id="00a" transform="translate(-591.000000, -169.000000)">
            <g id="dark/aside/user-info" transform="translate(591.000000, 169.000000)">
                <circle id="Oval-3" fill="url(#linearGradient-1)" cx="9" cy="9" r="9"></circle>
                <g id="Oval-2" transform="translate(2.400000, 2.400000)">
                    <mask id="mask-3" fill="white">
                        <use xlink:href="#path-2"></use>
                    </mask>
                    <g id="Mask"></g>
                    <path d="M7.2,20.8363636 C10.5137085,20.8363636 13.2,18.1500721 13.2,14.8363636 C13.2,11.5226551 10.5137085,8.83636364 7.2,8.83636364 C3.8862915,8.83636364 1.2,11.5226551 1.2,14.8363636 C1.2,18.1500721 3.8862915,20.8363636 7.2,20.8363636 Z M7.2,6.65454545 C8.70623114,6.65454545 9.92727273,5.43350386 9.92727273,3.92727273 C9.92727273,2.42104159 8.70623114,1.2 7.2,1.2 C5.69376886,1.2 4.47272727,2.42104159 4.47272727,3.92727273 C4.47272727,5.43350386 5.69376886,6.65454545 7.2,6.65454545 Z" stroke-opacity="0.6" stroke="#FFFFFF" mask="url(#mask-3)"></path>
                </g>
            </g>
        </g>
    </g>
</svg>