<?xml version="1.0" encoding="UTF-8"?>
<svg width="16px" height="15px" viewBox="0 0 16 15" version="1.1" xmlns="http://www.w3.org/2000/svg" xmlns:xlink="http://www.w3.org/1999/xlink">
    <!-- Generator: Sketch 50.2 (55047) - http://www.bohemiancoding.com/sketch -->
    <title>dark/aside/view</title>
    <desc>Created with Sketch.</desc>
    <defs></defs>
    <g id="Page-1" stroke="none" stroke-width="1" fill="none" fill-rule="evenodd">
        <g id="00a" transform="translate(-188.000000, -171.000000)">
            <g id="dark/aside/view" transform="translate(188.000000, 170.000000)">
                <rect id="Rectangle-4" x="0" y="0" width="16" height="16"></rect>
                <g id="Group" transform="translate(1.000000, 1.000000)">
                    <polygon id="Path-279" stroke="#CED3D7" points="4.22105258 9.0842105 1.78947366 7 0.4 11.5157894 2.83157891 13.5999999 9.0842104 12.2105262 12.5578946 13.5999999 13.5999998 8.73684208 10.4736841 7.34736842"></polygon>
                    <path d="M9.4,12 L10.7823447,7 M3.19999999,13.6 L4.84705881,8.4" id="Path-280" stroke="#CED3D7" stroke-dasharray="1"></path>
                    <path d="M7,10.2 C6.14285714,5.95 4,5.20625 4,2.975 C4,1.33195287 5.34314575,0 7,0 C8.65685425,0 10,1.33195287 10,2.975 C10,5.20625 7.85714286,5.95 7,10.2 Z M7,4.2 C7.6627417,4.2 8.2,3.6627417 8.2,3 C8.2,2.3372583 7.6627417,1.8 7,1.8 C6.3372583,1.8 5.8,2.3372583 5.8,3 C5.8,3.6627417 6.3372583,4.2 7,4.2 Z" id="Oval-125" fill="#CED3D7"></path>
                </g>
            </g>
        </g>
    </g>
</svg>