<?xml version="1.0" encoding="UTF-8"?>
<svg width="13px" height="13px" viewBox="0 0 13 13" version="1.1" xmlns="http://www.w3.org/2000/svg" xmlns:xlink="http://www.w3.org/1999/xlink">
    <!-- Generator: Sketch 50.2 (55047) - http://www.bohemiancoding.com/sketch -->
    <title>dark/aside/warning</title>
    <desc>Created with Sketch.</desc>
    <defs></defs>
    <g id="Page-1" stroke="none" stroke-width="1" fill="none" fill-rule="evenodd">
        <g id="00a" transform="translate(-251.000000, -172.000000)">
            <g id="dark/aside/warning" transform="translate(250.000000, 170.000000)">
                <rect id="Rectangle-4" x="0" y="0" width="16" height="16"></rect>
                <g id="Group" transform="translate(1.000000, 2.000000)" stroke="#CED3D7">
                    <path d="M1,12 L12,12" id="Line"></path>
                    <path d="M3,12.35 L3,7.94 C3,6.31628284 4.56700338,5 6.5,5 C8.43299662,5 10,6.31628284 10,7.94 L10,12.35" id="Rectangle-2"></path>
                    <path d="M0.446674245,4.85256392 L1.5,5.5" id="Line-2" stroke-linecap="square"></path>
                    <path d="M2.5,2.5 L3.5,3.5" id="Line-2-Copy-3" stroke-linecap="square"></path>
                    <path d="M11.5,4.83799586 L12.6651491,5.5" id="Line-2-Copy-2" stroke-linecap="square" transform="translate(12.082575, 5.168998) scale(-1, 1) translate(-12.082575, -5.168998) "></path>
                    <path d="M9.5,2.5 L10.5,3.5" id="Line-2-Copy-4" stroke-linecap="square" transform="translate(10.000000, 3.000000) scale(-1, 1) translate(-10.000000, -3.000000) "></path>
                    <path d="M6.5,2.5 L6.5,0.5" id="Line-3" stroke-linecap="square"></path>
                </g>
            </g>
        </g>
    </g>
</svg>