<?xml version="1.0" encoding="UTF-8"?>
<svg width="50px" height="50px" viewBox="0 0 50 50" version="1.1" xmlns="http://www.w3.org/2000/svg" xmlns:xlink="http://www.w3.org/1999/xlink">
    <!-- Generator: Sketch 50.2 (55047) - http://www.bohemiancoding.com/sketch -->
    <title>Drak/chart/add</title>
    <desc>Created with Sketch.</desc>
    <defs></defs>
    <g id="Page-1" stroke="none" stroke-width="1" fill="none" fill-rule="evenodd">
        <g id="00a" transform="translate(-61.000000, -985.000000)">
            <g id="Drak/chart/add" transform="translate(62.000000, 986.000000)">
                <circle id="Oval-4" stroke-opacity="0.5" stroke="#FFFFFF" cx="24" cy="24" r="24"></circle>
                <g id="人3" transform="translate(11.000000, 11.000000)">
                    <rect id="Rectangle-path" fill="#000000" fill-rule="nonzero" opacity="0" x="0" y="0" width="25.6" height="25.6"></rect>
                    <path d="M12,12 L12,2.4 C12,1.9581722 12.3581722,1.6 12.8,1.6 C13.2418278,1.6 13.6,1.9581722 13.6,2.4 L13.6,12 L23.2,12 C23.6418278,12 24,12.3581722 24,12.8 C24,13.2418278 23.6418278,13.6 23.2,13.6 L13.6,13.6 L13.6,23.2 C13.6,23.6418278 13.2418278,24 12.8,24 C12.3581722,24 12,23.6418278 12,23.2 L12,13.6 L2.4,13.6 C1.9581722,13.6 1.6,13.2418278 1.6,12.8 C1.6,12.3581722 1.9581722,12 2.4,12 L12,12 Z" id="Combined-Shape" fill-opacity="0.6" fill="#FFFFFF"></path>
                </g>
            </g>
        </g>
    </g>
</svg>