<?xml version="1.0" encoding="UTF-8"?>
<svg width="62px" height="62px" viewBox="0 0 62 62" version="1.1" xmlns="http://www.w3.org/2000/svg" xmlns:xlink="http://www.w3.org/1999/xlink">
    <!-- Generator: Sketch 50.2 (55047) - http://www.bohemiancoding.com/sketch -->
    <title>Drak/chart/equipment</title>
    <desc>Created with Sketch.</desc>
    <defs></defs>
    <g id="Page-1" stroke="none" stroke-width="1" fill="none" fill-rule="evenodd">
        <g id="00a" transform="translate(-66.000000, -355.000000)">
            <g id="Drak/chart/equipment" transform="translate(67.000000, 356.000000)">
                <circle id="Oval-4" stroke-opacity="0.5" stroke="#FFFFFF" cx="30" cy="30" r="30"></circle>
                <g id="人3" transform="translate(14.000000, 14.000000)" fill-rule="nonzero">
                    <rect id="Rectangle-path" fill="#000000" opacity="0" x="0" y="0" width="32" height="32"></rect>
                    <path d="M15.6162302,15.7825305 C17.1193284,14.8007196 18.1139316,13.1025385 18.1139316,11.1740955 C18.1139316,8.14231459 15.645013,5.67339594 12.613232,5.67339594 C9.58145109,5.67339594 7.11253244,8.14231459 7.11253244,11.1740955 C7.11253244,13.0993404 8.10713569,14.7975215 9.61023381,15.7825305 C8.22546469,16.2430542 6.95582647,17.0201879 5.8940635,18.0819508 C4.09993997,19.8760743 3.11173291,22.2618429 3.11173291,24.7979212 C3.11173291,25.1880871 3.42514484,25.5014991 3.81531075,25.5014991 C4.20547666,25.5014991 4.51888859,25.1880871 4.51888859,24.7979212 C4.51888859,20.336598 8.14871069,16.7067759 12.6100339,16.7067759 C17.0713571,16.7067759 20.7011792,20.336598 20.7011792,24.7979212 C20.7011792,25.1880871 21.0145912,25.5014991 21.4047571,25.5014991 C21.794923,25.5014991 22.1083349,25.1880871 22.1083349,24.7979212 C22.1083349,22.2618429 21.1201278,19.8760743 19.3260043,18.0819508 C18.2706376,17.023386 17.0009994,16.2430542 15.6162302,15.7825305 Z M8.51968819,11.1772936 C8.51968819,8.91944834 10.3553868,7.08374975 12.6132321,7.08374975 C14.8710773,7.08374975 16.7067759,8.91944834 16.7067759,11.1772936 C16.7067759,13.4351389 14.8710773,15.2708375 12.6132321,15.2708375 C10.3585848,15.2708375 8.51968819,13.4351389 8.51968819,11.1772936 Z M25.9044573,18.5488707 C24.8203078,16.9530282 23.2788327,15.7313612 21.4911053,15.0373776 C22.2842294,13.8572857 22.7063762,12.4661203 22.6935838,11.0301819 C22.6807915,9.28402959 22.0283829,7.61143316 20.8610833,6.31940838 C20.5988407,6.03158106 20.1543074,6.0091945 19.8664801,6.27143716 C19.5786527,6.53367981 19.5562662,6.97821309 19.8185088,7.26604041 C21.7725364,9.42154709 21.7853287,12.689986 19.8472916,14.8678793 C19.8025184,14.9190486 19.7641414,14.9766141 19.7385568,15.0341795 C19.7033779,15.0885469 19.6777933,15.1493104 19.6586048,15.2164702 C19.5562662,15.5906457 19.7801319,15.9776135 20.1543074,16.0799521 C24.0207875,17.1161303 26.5184889,20.7555467 26.0995403,24.7275635 C26.0579652,25.1145313 26.3393964,25.4599241 26.7263642,25.5014991 C26.7519488,25.5046972 26.7775335,25.5046972 26.7999201,25.5046972 C27.1549071,25.5046972 27.4619229,25.2360584 27.5002998,24.8746752 C27.7337597,22.6520088 27.1676994,20.4037578 25.9044573,18.5488707 Z" id="Shape" fill-opacity="0.6" fill="#FFFFFF"></path>
                </g>
            </g>
        </g>
    </g>
</svg>